PathFileType	4	TRC_standard.trc
DataRate	CameraRate	NumFrames	NumMarkers	Units	OrigDataRate	OrigDataStartFrame	OrigNumFrames
100.0	100.0	10	37	mm	100.0	1118	2234	
Frame#	Time	T10			C7			CLAV			RACR1			LACR1			RPSI			LPSI			RASI			LASI			LTH2			LTH3			LTH1			RTH2			RTH3			RTH1			RLFC			RMFC			RTB1			RTB3			RTB2			LLFC			LMFC			LTB1			LTB3			LTB2			LLMAL			LCAL			LMMAL			RLMAL			RMMAL			RCAL			RMT5			RMT1			RToe			LMT5			LMT1			LToe			
		X1	Y1	Z1	X2	Y2	Z2	X3	Y3	Z3	X4	Y4	Z4	X5	Y5	Z5	X6	Y6	Z6	X7	Y7	Z7	X8	Y8	Z8	X9	Y9	Z9	X10	Y10	Z10	X11	Y11	Z11	X12	Y12	Z12	X13	Y13	Z13	X14	Y14	Z14	X15	Y15	Z15	X16	Y16	Z16	X17	Y17	Z17	X18	Y18	Z18	X19	Y19	Z19	X20	Y20	Z20	X21	Y21	Z21	X22	Y22	Z22	X23	Y23	Z23	X24	Y24	Z24	X25	Y25	Z25	X26	Y26	Z26	X27	Y27	Z27	X28	Y28	Z28	X29	Y29	Z29	X30	Y30	Z30	X31	Y31	Z31	X32	Y32	Z32	X33	Y33	Z33	X34	Y34	Z34	X35	Y35	Z35	X36	Y36	Z36	X37	Y37	Z37	
1118	11.17	710.41577	1239.5878	-568.79327	705.52411	1504.2374	-462.83286	723.25665	1354.4908	-356.8891	550.78217	1450.3702	-426.27512	887.84076	1453.8577	-454.01556	647.20142	1027.4071	-623.53925	735.4812	1026.8713	-628.65826	586.10889	999.24408	-385.85837	839.37177	996.52374	-399.77661	891.89978	724.11023	-397.67645	910.6936	785.47931	-446.29385	866.88068	869.64301	-404.65558	593.35046	720.60333	-367.36475	541.0282	784.81299	-398.30402	607.80414	836.82428	-362.72705	589.82281	502.98404	-433.9762				643.09888	393.6185	-404.92987	621.21936	315.1254	-430.99057	649.57318	264.94656	-429.49185	882.88281	510.50299	-430.45981				841.63379	394.17938	-449.005	863.20557	359.50986	-515.8407	823.88861	313.55783	-540.20923	835.76959	212.57143	-723.90515				781.82916	227.35757	-782.66089	642.4873	76.510284	-498.5423				682.82764	38.372826	-565.65411	647.97601	42.950706	-390.70563	727.172	51.097248	-367.60648				846.26764	89.116577	-697.19043	781.11255	80.300842	-666.70612			
1119	11.18	709.52417	1239.8879	-569.10028	705.06366	1504.4412	-462.77011	723.29254	1354.6255	-357.17145	550.49719	1450.6755	-425.76355	887.43329	1454.0361	-454.95227	646.99927	1027.5284	-623.99408	735.25415	1026.8391	-629.10846	585.44373	999.3526	-386.27951	838.70709	996.98798	-400.05771	891.77008	726.2688	-393.86142	910.76849	786.84729	-443.5448	866.41437	871.15302	-403.83148	592.71521	719.56897	-370.26663	540.55115	784.27014	-400.49725	607.06805	835.99231	-364.08905	589.34399	502.52957	-439.57773				642.59009	392.98224	-411.24414	620.85803	314.64902	-437.8317	649.3111	264.49689	-436.60745	882.74286	512.13654	-422.20929				841.64984	395.65726	-438.60498	863.29541	359.95319	-504.8703	824.03094	313.56497	-528.36938	835.94128	209.22493	-710.3562				781.63434	220.56927	-770.05206	642.59875	76.593842	-506.75546				682.93347	38.576595	-573.96313	647.81519	42.928944	-399.00577	727.12787	50.940311	-375.64319				849.32086	88.60508	-677.21191	784.43359	79.701042	-645.8147			
1120	11.19	708.69342	1240.1152	-569.47656	704.64087	1504.5724	-462.78119	723.34448	1354.6947	-357.52002	550.24329	1450.9049	-425.34814	887.05786	1454.1406	-455.9444	646.91125	1027.6055	-624.52161	735.14087	1026.7802	-629.60492	584.80835	999.38293	-386.80365	838.0752	997.38257	-400.37289	891.54834	728.39362	-390.25653	910.84479	788.15485	-440.98489	865.96704	872.57513	-403.07883	592.14075	718.52203	-373.24548	540.1369	783.69513	-402.78021	606.38446	835.13153	-365.53223	588.92584	502.0849	-445.24356				642.14478	392.35471	-417.60876	620.55145	314.18579	-444.71304	649.10132	264.06088	-443.76553	882.47278	513.80084	-414.39062				841.58588	397.17059	-428.41962	863.3537	360.30362	-493.96298	824.20673	313.39682	-516.42084	836.21088	205.235	-696.25946				781.5434	212.98788	-756.72247	642.72626	76.695145	-514.98145				683.05701	38.796837	-582.28711	647.67181	42.914181	-407.32425	727.08844	50.791683	-383.70377				852.48193	87.709488	-656.76648	787.90985	78.791016	-624.40906			
1121	11.2	707.92542	1240.2698	-569.91504	704.25623	1504.6315	-462.86017	723.40955	1354.6993	-357.92654	550.01996	1451.059	-425.02246	886.71472	1454.1714	-456.98004	646.93378	1027.6401	-625.1153	735.13788	1026.6943	-630.14148	584.20422	999.33588	-387.42371	837.47729	997.70508	-400.71741	891.24231	730.45831	-386.87512	910.9176	789.39111	-438.61652	865.54041	873.90009	-402.39474	591.62866	717.46381	-376.29156	539.78632	783.08789	-405.14313	605.75415	834.24158	-367.04947	588.56958	501.64838	-450.96069				641.76624	391.7345	-424.01251	620.302	313.73398	-451.62396	648.94635	263.63647	-450.95703	882.07599	515.47272	-407.02872				841.44354	398.70779	-418.47607	863.38135	360.55832	-483.13715	824.41595	313.06012	-504.38135	836.58545	200.64406	-681.60144				781.57611	204.69304	-742.63647	642.87103	76.815155	-523.2171				683.19672	39.035206	-590.62317	647.54553	42.907539	-415.65872	727.05426	50.650269	-391.78595				855.71106	86.471397	-635.92065	791.4942	77.623032	-602.57544			
1122	11.21	707.22144	1240.3522	-570.40869	703.91077	1504.6195	-463.00067	723.48462	1354.6398	-358.38284	549.82721	1451.1383	-424.77963	886.40405	1454.1285	-458.04739	647.06177	1027.6329	-625.76831	735.2406	1026.5809	-630.71277	583.63293	999.2124	-388.13229	836.91467	997.9538	-401.08722	890.86157	732.4361	-383.72992	910.98291	790.54547	-436.4368	865.1369	875.11932	-401.77682	591.18073	716.39514	-379.39578	539.50037	782.44855	-407.57666	605.17828	833.32184	-368.63391	588.27618	501.21759	-456.71558				641.45709	391.12027	-430.44437	620.11139	313.29138	-458.55371	648.84875	263.22144	-458.173	881.55798	517.12787	-400.14276				841.22351	400.2572	-408.79892	863.37854	360.716	-472.40952	824.65485	312.56616	-492.27057	837.06848	195.50703	-666.37433				781.74786	195.77327	-727.77161	643.03461	76.954842	-531.45941				683.35107	39.293266	-598.96881	647.43597	42.910172	-424.00705	727.026	50.515087	-399.88773				858.96936	84.943047	-614.72845	795.13751	76.258919	-580.38776			
1123	11.22	706.5827	1240.3632	-570.95056	703.60504	1504.5375	-463.1962	723.56787	1354.5156	-358.88068	549.66479	1451.1431	-424.61237	886.12646	1454.0122	-459.1347	647.28888	1027.5846	-626.47455	735.44336	1026.4395	-631.31403	583.09674	999.01337	-388.92194	836.3891	998.12683	-401.47913	890.41656	734.29999	-380.83243	911.03796	791.60699	-434.4408	864.75928	876.22461	-401.22302	590.79865	715.31647	-382.54907	539.27979	781.77667	-410.07104	604.65826	832.37146	-370.27899	588.04645	500.78989	-462.49475				641.21924	390.51047	-436.89334	619.98114	312.85587	-465.49191	648.81073	262.81348	-465.40457	880.9267	518.74225	-393.74634				840.92584	401.80695	-399.41028	863.34418	360.77704	-461.79562	824.91541	311.93021	-480.11063	837.65973	189.89029	-650.5766				782.06995	186.32492	-712.11847	643.21863	77.115143	-539.70569				683.51874	39.572636	-607.3222	647.34369	42.92313	-432.36798	727.005	50.38522	-408.0076				862.21899	83.185699	-593.23309	798.78973	74.767899	-557.91034			
1124	11.23	706.00995	1240.304	-571.53369	703.33997	1504.387	-463.43976	723.65741	1354.3271	-359.41196	549.53296	1451.0741	-424.51321	885.88257	1453.8229	-460.23065	647.60785	1027.4945	-627.22827	735.73926	1026.2676	-631.94147	582.5979	998.73993	-389.78491	835.90265	998.22308	-401.89035	889.91833	736.02356	-378.19266	911.08191	792.56451	-432.62329	864.41028	877.20905	-400.73163	590.48395	714.22821	-385.74283	539.12531	781.07184	-412.61676	604.19525	831.38934	-371.97809	587.88019	500.36246	-468.28442				641.05414	389.90338	-443.34869	619.91187	312.42526	-472.42868	648.83405	262.41034	-472.64304	880.19116	520.29211	-387.84741				840.54932	403.34561	-390.32977	863.27606	360.74353	-451.31039	825.1864	311.17145	-467.92661	838.35474	183.8701	-634.21613				782.54865	176.45084	-695.68256	643.42523	77.296936	-547.95343				683.69818	39.875057	-615.68195	647.26996	42.947269	-440.74048	726.9931	50.259762	-416.1442				865.42206	81.267738	-571.47083	802.39893	73.224251	-535.19977			
1125	11.24	705.5036	1240.1768	-572.15118	703.11627	1504.1697	-463.72427	723.75256	1354.074	-359.96881	549.4317	1450.9327	-424.47446	885.67316	1453.5612	-461.32434	648.01093	1027.3627	-628.02368	736.12079	1026.0635	-632.59149	582.13885	998.39355	-390.71313	835.4574	998.2417	-402.31879	889.37799	737.58228	-375.81866	911.11475	793.40546	-430.98029	864.09283	878.06659	-400.30106	590.23846	713.13025	-388.96869	539.0376	780.3338	-415.20404	603.79083	830.37457	-373.72479	587.77759	499.93228	-474.07071				640.96234	389.29761	-449.79999	619.90399	311.99738	-479.35428	648.91986	262.00992	-479.8801	879.36237	521.75488	-382.44836				840.09216	404.86197	-381.57504	863.17065	360.61917	-440.96893	825.45349	310.31174	-455.74713	839.14539	177.5307	-617.31116				783.18628	166.25903	-678.48517	643.65558	77.501076	-556.20038				683.88751	40.202499	-624.047	647.216	42.983177	-449.12411	726.99225	50.13784	-424.29678				868.54065	79.26236	-549.47327	805.91205	71.704849	-512.30896			
1126	11.25	705.0639	1239.9835	-572.79657	702.93488	1503.8882	-464.04269	723.85278	1353.7562	-360.54367	549.36151	1450.7197	-424.48825	885.49915	1453.2285	-462.40546	648.48944	1027.1881	-628.85565	736.5799	1025.8252	-633.26111	581.72192	997.97565	-391.69855	835.0556	998.18237	-402.76273	888.8064	738.9538	-373.7164	911.13806	794.11755	-429.5094	863.80981	878.7923	-399.93005	590.06335	712.02277	-392.21835	539.01697	779.56256	-417.82327	603.44604	829.32635	-375.51254	587.73785	499.4967	-479.83981				640.94397	388.69168	-456.23703	619.95715	311.57056	-486.25977	649.06891	261.61038	-487.10767	878.45215	523.10974	-377.54642				839.55243	406.3454	-373.16165	863.02362	360.40945	-430.7868	825.70032	309.3754	-443.60437	840.01965	170.96214	-599.89203				783.98029	155.86134	-660.5636	643.91113	77.728409	-564.44421				684.08502	40.55727	-632.41656	647.18359	43.031078	-457.51886	727.00458	50.018623	-432.46518				871.53546	77.24514	-527.27234	809.27509	70.286514	-489.29074			
1127	11.26	704.6908	1239.7271	-573.46338	702.79639	1503.5448	-464.38766	723.95856	1353.3737	-361.12921	549.32281	1450.4369	-424.54684	885.36169	1452.826	-463.46436	649.03479	1026.97	-629.71881	737.10809	1025.5504	-633.94757	581.34955	997.4884	-392.73282	834.69958	998.04529	-403.2207	888.21332	740.11896	-371.88925	911.15436	794.68842	-428.21005	863.5636	879.38269	-399.61725	589.95978	710.90607	-395.48373	539.06348	778.75812	-420.46472	603.16235	828.2442	-377.33475	587.75995	499.05338	-485.578				640.99799	388.08463	-462.65018	620.07025	311.14319	-493.13654	649.28064	261.21042	-494.31812	877.47339	524.33807	-373.13391				838.92743	407.78604	-365.10336	862.83008	360.12137	-420.78104	825.90875	308.38809	-431.53455	840.96198	164.25784	-582.00262				784.92432	145.37173	-641.97296	644.19214	77.97979	-572.68268				684.28839	40.942085	-640.79016	647.17444	43.090836	-465.92493	727.03229	49.901363	-440.64951				874.36652	75.291267	-504.90302	812.4328	69.043312	-466.20114			
